# xmcd
#
# Track frame offsets:
#	150
#	29248
#	53843
#	98295
#	117603
#	135971
#	158816
#	197726
#	223161
#	247175
#	274627
#	303939
#	326268
#	343707
#
# Disc length: 4769 seconds
#
# Revision: 2
# Processed by: cddbd v1.4PL0 Copyright (c) Steve Scherf et al.
# Submitted via: manual fix by traut@gmx.de 0.1
#
DISCID=ca129f0e
DTITLE=Chemical Brothers - The Best CD 1
DYEAR=2002
DGENRE=
TTITLE0=Star Guitar
TTITLE1=Dig your own hole
TTITLE2=Block Rockin'Beats (the micronauts remix)
TTITLE3=Under the Influence
TTITLE4=Pioneer Skies
TTITLE5=Chemical Beats (Dave Clarke remix)
TTITLE6=Surrender (the sunshine underground)
TTITLE7=Three Little Birdies Down Beats
TTITLE8=Music: Response
TTITLE9=Freak of the Week
TTITLE10=Base G
TTITLE11=Come with us
TTITLE12=Lost in the K-Hole
TTITLE13=Orange Wedge
EXTD=
EXTT0=
EXTT1=
EXTT2=
EXTT3=
EXTT4=
EXTT5=
EXTT6=
EXTT7=
EXTT8=
EXTT9=
EXTT10=
EXTT11=
EXTT12=
EXTT13=
PLAYORDER=
